<?xml version="1.0" encoding="UTF-8"?>
<svg xmlns="http://www.w3.org/2000/svg" version="1.1" viewBox="0 0 111.6 111.6">
  <defs>
    <style>
      .cls-1 {
        fill: #fff;
      }

      .cls-2 {
        fill: #00b100;
      }
    </style>
  </defs>
  <!-- Generator: Adobe Illustrator 28.6.0, SVG Export Plug-In . SVG Version: 1.2.0 Build 709)  -->
  <g>
    <g id="_レイヤー_1" data-name="レイヤー_1">
      <g>
        <circle class="cls-2" cx="55.8" cy="55.8" r="55.8"/>
        <g>
          <path class="cls-1" d="M94.8,50.3c0-17.5-17.5-31.7-39-31.7s-39,14.2-39,31.7,13.9,28.8,32.6,31.2c1.3.3,3,.8,3.4,1.9.4,1,.3,2.5.1,3.5,0,0-.5,2.8-.6,3.3-.2,1-.8,3.9,3.4,2.1,4.2-1.8,22.5-13.2,30.7-22.7h0c5.7-6.2,8.4-12.5,8.4-19.5"/>
          <g>
            <path class="cls-2" d="M47.9,41.9h-2.7c-.4,0-.8.3-.8.8v17c0,.4.3.8.8.8h2.7c.4,0,.8-.3.8-.8v-17c0-.4-.3-.8-.8-.8"/>
            <path class="cls-2" d="M66.7,41.9h-2.7c-.4,0-.8.3-.8.8v10.1l-7.8-10.5s0,0,0,0c0,0,0,0,0,0,0,0,0,0,0,0,0,0,0,0,0,0,0,0,0,0,0,0,0,0,0,0,0,0,0,0,0,0,0,0,0,0,0,0,0,0,0,0,0,0,0,0,0,0,0,0,0,0,0,0,0,0,0,0,0,0,0,0,0,0,0,0,0,0,0,0,0,0,0,0,0,0,0,0,0,0,0,0,0,0,0,0,0,0,0,0,0,0,0,0,0,0,0,0,0,0,0,0,0,0,0,0h-2.7c-.4,0-.8.3-.8.8v17c0,.4.3.8.8.8h2.7c.4,0,.8-.3.8-.8v-10.1l7.8,10.5c0,0,.1.1.2.2,0,0,0,0,0,0,0,0,0,0,0,0,0,0,0,0,0,0,0,0,0,0,0,0,0,0,0,0,0,0,0,0,0,0,0,0,0,0,0,0,0,0,0,0,0,0,0,0,0,0,.1,0,.2,0h2.7c.4,0,.8-.3.8-.8v-17c0-.4-.3-.8-.8-.8"/>
            <path class="cls-2" d="M41.3,56.1h-7.4v-13.5c0-.4-.3-.8-.8-.8h-2.7c-.4,0-.8.3-.8.8v17h0c0,.2,0,.4.2.5,0,0,0,0,0,0,0,0,0,0,0,0,.1.1.3.2.5.2h10.9c.4,0,.8-.3.8-.8v-2.7c0-.4-.3-.8-.8-.8"/>
            <path class="cls-2" d="M81.8,46.1c.4,0,.8-.3.8-.8v-2.7c0-.4-.3-.8-.8-.8h-10.9c-.2,0-.4,0-.5.2,0,0,0,0,0,0,0,0,0,0,0,0-.1.1-.2.3-.2.5h0v17h0c0,.2,0,.4.2.5,0,0,0,0,0,0,0,0,0,0,0,0,.1.1.3.2.5.2h10.9c.4,0,.8-.3.8-.8v-2.7c0-.4-.3-.8-.8-.8h-7.4v-2.9h7.4c.4,0,.8-.3.8-.8v-2.7c0-.4-.3-.8-.8-.8h-7.4v-2.9h7.4Z"/>
          </g>
        </g>
      </g>
    </g>
  </g>
</svg>